# xmcd
#
# Track frame offsets:
# 150
# 16447
# 29016
# 40552
# 50989
# 58689
# 70484
# 79528
# 90161
# 105187
# 115726
# 127062
# 137681
# 153008
# 168265
#
# Disc length: 2401 seconds
#
# Revision: 0
# Processed by: cddbd v1.5.2PL0 Copyright (c) Steve Scherf et al.
# Submitted via: Axialis_AX_CDPlayer 2.6
#
DISCID=ba095f0f
DTITLE=Johnny Cash - Unearthed [CD4 of 5) My Mother's Hymn Book
DYEAR=1900
DGENRE=
TTITLE0=Where We'll Never Grow Old
TTITLE1=I Shall Not Be Moved
TTITLE2=I Am A Pilgrim
TTITLE3=Do Lord
TTITLE4=When The Roll Is Called Up Yonder
TTITLE5=If We Never Meet Again This Side Of Heaven
TTITLE6=I'll Fly Away
TTITLE7=Where The Soul Of Man Never Dies
TTITLE8=Let The Lower Lights Be Burning
TTITLE9=When He Reached Down
TTITLE10=In The Sweet By And By
TTITLE11=I'm Bound For The Promised Land
TTITLE12=In The Garden
TTITLE13=Softly And Tenderly
TTITLE14=Just As I Am
EXTD=www.johnnycash.com
EXTT0=
EXTT1=
EXTT2=
EXTT3=
EXTT4=
EXTT5=
EXTT6=
EXTT7=
EXTT8=
EXTT9=
EXTT10=
EXTT11=
EXTT12=
EXTT13=
EXTT14=
PLAYORDER=
